<?xml version="1.0" encoding="UTF-8" standalone="no"?>
<svg
   xmlns:dc="http://purl.org/dc/elements/1.1/"
   xmlns:cc="http://creativecommons.org/ns#"
   xmlns:rdf="http://www.w3.org/1999/02/22-rdf-syntax-ns#"
   xmlns:svg="http://www.w3.org/2000/svg"
   xmlns="http://www.w3.org/2000/svg"
   xmlns:xlink="http://www.w3.org/1999/xlink"
   xmlns:sodipodi="http://sodipodi.sourceforge.net/DTD/sodipodi-0.dtd"
   xmlns:inkscape="http://www.inkscape.org/namespaces/inkscape"
   width="240"
   height="244"
   viewBox="0 0 240 244"
   version="1.1"
   id="svg123"
   sodipodi:docname="avataaars.svg"
   inkscape:version="1.0.1 (c497b03c, 2020-09-10)">
  <metadata
     id="metadata127">
    <rdf:RDF>
      <cc:Work
         rdf:about="">
        <dc:format>image/svg+xml</dc:format>
        <dc:type
           rdf:resource="http://purl.org/dc/dcmitype/StillImage" />
        <dc:title></dc:title>
      </cc:Work>
    </rdf:RDF>
  </metadata>
  <sodipodi:namedview
     pagecolor="#ffffff"
     bordercolor="#666666"
     borderopacity="1"
     objecttolerance="10"
     gridtolerance="10"
     guidetolerance="10"
     inkscape:pageopacity="0"
     inkscape:pageshadow="2"
     inkscape:window-width="1440"
     inkscape:window-height="855"
     id="namedview125"
     showgrid="false"
     inkscape:zoom="2.3892857"
     inkscape:cx="241.44694"
     inkscape:cy="123.25859"
     inkscape:window-x="0"
     inkscape:window-y="23"
     inkscape:window-maximized="0"
     inkscape:current-layer="svg123" />
  <desc
     id="desc10">Created with getavataaars.com</desc>
  <defs
     id="defs15">
    <circle
       id="path-1"
       cx="120"
       cy="120"
       r="120" />
    <path
       d="m 12,160 c 0,66.27417 53.72583,120 120,120 66.27417,0 120,-53.72583 120,-120 h 12 V 0 H 0 v 160 z"
       id="path-3" />
    <path
       d="M 124,144.61095 V 163 h 4 v 0 c 39.7645,0 72,32.2355 72,72 v 9 H 0 v -9 c 0,-39.7645 32.235498,-72 72,-72 v 0 h 4 V 144.61095 C 58.762634,136.42237 46.372225,119.68701 44.305139,99.881238 38.480311,99.057787 34,94.05211 34,88 V 74 C 34,68.054007 38.324573,63.118073 44,62.165917 V 56 56 C 44,25.072054 69.072054,0 100,0 v 0 0 c 30.92795,0 56,25.072054 56,56 v 6.165917 c 5.67543,0.952156 10,5.88809 10,11.834083 v 14 c 0,6.05211 -4.48031,11.057787 -10.30514,11.881238 C 153.62778,119.68701 141.23736,136.42237 124,144.61095 Z"
       id="path-5" />
  </defs>
  <g
     id="g121"
     stroke="none"
     stroke-width="1"
     fill="none"
     fill-rule="evenodd"
     transform="translate(-12,-36)">
    <g
       transform="translate(-825,-1100)"
       id="Avataaar/Circle">
      <g
         transform="translate(825,1100)"
         id="g118">
        <g
           id="Circle"
           stroke-width="1"
           fill-rule="evenodd"
           transform="translate(12,40)">
          <mask
             id="mask-2"
             fill="#ffffff">
            <use
               xlink:href="#path-1"
               id="use17"
               x="0"
               y="0"
               width="100%"
               height="100%" />
          </mask>
          <use
             id="Circle-Background"
             fill="#e6e6e6"
             xlink:href="#path-1"
             x="0"
             y="0"
             width="100%"
             height="100%" />
          <g
             id="Color/Palette/Blue-01"
             mask="url(#mask-2)"
             fill="#2C5282">
            <rect
               id="ðŸ–Color"
               x="0"
               y="0"
               width="240"
               height="240" />
          </g>
        </g>
        <mask
           id="mask-4"
           fill="#ffffff">
          <use
             xlink:href="#path-3"
             id="use24"
             x="0"
             y="0"
             width="100%"
             height="100%" />
        </mask>
        <g
           id="Mask" />
        <g
           id="Avataaar"
           stroke-width="1"
           fill-rule="evenodd"
           mask="url(#mask-4)">
          <g
             id="Body"
             transform="translate(32,36)">
            <mask
               id="mask-6"
               fill="#ffffff">
              <use
                 xlink:href="#path-5"
                 id="use28"
                 x="0"
                 y="0"
                 width="100%"
                 height="100%" />
            </mask>
            <use
               fill="#d0c6ac"
               xlink:href="#path-5"
               id="use31"
               x="0"
               y="0"
               width="100%"
               height="100%" />
            <g
               id="Skin/ðŸ‘¶ðŸ½-03-Brown"
               mask="url(#mask-6)"
               fill="#ffdbb4">
              <g
                 transform="translate(-32)"
                 id="Color">
                <rect
                   x="0"
                   y="0"
                   width="264"
                   height="244"
                   id="rect33" />
              </g>
            </g>
            <path
               d="m 156,79 v 23 c 0,30.92795 -25.07205,56 -56,56 -30.927946,0 -56,-25.07205 -56,-56 V 79 94 c 0,30.92795 25.072054,56 56,56 30.92795,0 56,-25.07205 56,-56 z"
               id="Neck-Shadow"
               fill-opacity="0.1"
               fill="#000000"
               mask="url(#mask-6)" />
          </g>
          <g
             id="Clothing/Hoodie"
             transform="translate(0,170)">
            <defs
               id="defs40">
              <path
                 d="M 108,13.070886 C 90.081301,15.075938 76.279842,20.551834 76.004203,34.644968 50.146433,45.568093 32,71.164626 32,100.99949 v 0 V 110 h 200 v -9.00051 C 232,71.164626 213.85357,45.568093 187.9958,34.644983 187.72016,20.551834 173.9187,15.075938 156,13.070886 V 32 32 c 0,13.254834 -10.74517,24 -24,24 v 0 C 118.74517,56 108,45.254834 108,32 Z"
                 id="react-path-50" />
            </defs>
            <mask
               id="react-mask-51"
               fill="#ffffff">
              <use
                 xlink:href="#react-path-50"
                 id="use42"
                 x="0"
                 y="0"
                 width="100%"
                 height="100%" />
            </mask>
            <use
               id="Hoodie"
               fill="#b7c1db"
               fill-rule="evenodd"
               xlink:href="#react-path-50"
               x="0"
               y="0"
               width="100%"
               height="100%" />
            <g
               id="Color/Palette/Gray-01"
               mask="url(#react-mask-51)"
               fill-rule="evenodd"
               fill="#262e33">
              <rect
                 id="rect46"
                 x="0"
                 y="0"
                 width="264"
                 height="110" />
            </g>
            <path
               d="M 102,61.739053 V 110 H 95 V 58.150262 c 2.203754,1.309796 4.546769,2.510526 7,3.588791 z m 67,-3.588791 V 98.5 c 0,1.933 -1.567,3.5 -3.5,3.5 -1.933,0 -3.5,-1.567 -3.5,-3.5 V 61.739053 c 2.45323,-1.078265 4.79625,-2.278995 7,-3.588791 z"
               id="Straps"
               fill="#f4f4f4"
               fill-rule="evenodd"
               mask="url(#react-mask-51)" />
            <path
               d="M 90.960133,12.724354 C 75.90931,15.571178 65.5,21.242885 65.5,32.307692 65.5,52.020009 98.537681,68 132,68 165.46232,68 198.5,52.020009 198.5,32.307692 198.5,21.242885 188.09069,15.571178 173.03987,12.724354 182.12492,16.07446 188,21.706055 188,31.076923 188,51.468975 160.17879,68 132,68 103.82121,68 76,51.468975 76,31.076923 76,21.706055 81.875079,16.07446 90.960133,12.724354 Z"
               id="Shadow"
               fill-opacity="0.16"
               fill="#000000"
               fill-rule="evenodd"
               mask="url(#react-mask-51)" />
          </g>
          <g
             id="Face"
             transform="translate(76,82)"
             fill="#000000">
            <g
               id="Mouth/Smile"
               transform="translate(2,52)">
              <defs
                 id="defs53">
                <path
                   d="M 35.117844,15.128077 C 36.175712,24.619802 44.225987,32 54,32 63.804206,32 71.874008,24.574136 72.891759,15.040055 72.973669,14.272746 72.116743,13 71.042767,13 c -14.894013,0 -26.304846,0 -33.955943,0 -1.080207,0 -2.074818,1.178444 -1.96898,2.128077 z"
                   id="react-path-42" />
              </defs>
              <mask
                 id="react-mask-43"
                 fill="#ffffff">
                <use
                   xlink:href="#react-path-42"
                   id="use55"
                   x="0"
                   y="0"
                   width="100%"
                   height="100%" />
              </mask>
              <use
                 id="Mouth"
                 fill-opacity="0.7"
                 fill="#000000"
                 fill-rule="evenodd"
                 xlink:href="#react-path-42"
                 x="0"
                 y="0"
                 width="100%"
                 height="100%" />
              <rect
                 id="Teeth"
                 fill="#ffffff"
                 fill-rule="evenodd"
                 mask="url(#react-mask-43)"
                 x="39"
                 y="2"
                 width="31"
                 height="16"
                 rx="5" />
              <g
                 id="Tongue"
                 stroke-width="1"
                 fill-rule="evenodd"
                 mask="url(#react-mask-43)"
                 fill="#ff4f6d">
                <g
                   transform="translate(38,24)"
                   id="g64">
                  <circle
                     cx="11"
                     cy="11"
                     r="11"
                     id="circle60" />
                  <circle
                     cx="21"
                     cy="11"
                     r="11"
                     id="circle62" />
                </g>
              </g>
            </g>
            <g
               id="Nose/Default"
               transform="translate(28,40)"
               fill-opacity="0.16">
              <path
                 d="m 16,8 c 0,4.418278 5.372583,8 12,8 v 0 c 6.627417,0 12,-3.581722 12,-8"
                 id="Nose" />
            </g>
            <g
               id="Eyes/Side-ðŸ˜’"
               transform="translate(0,8)"
               fill-opacity="0.6">
              <path
                 d="M 27.240958,20.345534 C 26.462715,21.357491 26,22.624709 26,24 c 0,3.313708 2.686291,6 6,6 3.313708,0 6,-2.686292 6,-6 0,-0.29021 -0.0206,-0.575608 -0.06043,-0.854811 0.0079,-0.222405 -0.02979,-0.474235 -0.124219,-0.738065 -0.04498,-0.125676 -0.09324,-0.249873 -0.144665,-0.372556 C 37.33702,21.071726 36.765046,20.220211 36.025328,19.550585 33.898886,17.317325 30.506473,16 26.99758,16 c -4.833158,0 -8.990904,2.648508 -10.837413,6.447312 -0.540066,1.111072 0.386626,1.852982 1.277372,1.124329 2.436219,-1.992889 5.819667,-3.227853 9.560041,-3.227853 0.0813,0 0.162424,5.84e-4 0.243378,0.0017 z"
                 id="Eye" />
              <path
                 d="M 85.240958,20.345534 C 84.462715,21.357491 84,22.624709 84,24 c 0,3.313708 2.686291,6 6,6 3.313709,0 6,-2.686292 6,-6 0,-0.29021 -0.0206,-0.575608 -0.06043,-0.854811 0.0079,-0.222405 -0.02979,-0.474235 -0.124219,-0.738065 -0.04498,-0.125676 -0.09324,-0.249873 -0.144665,-0.372556 C 95.33702,21.071726 94.765046,20.220211 94.025328,19.550585 91.898886,17.317325 88.506473,16 84.99758,16 c -4.833158,0 -8.990904,2.648508 -10.837413,6.447312 -0.540066,1.111072 0.386626,1.852982 1.277372,1.124329 2.436219,-1.992889 5.819667,-3.227853 9.560041,-3.227853 0.0813,0 0.162424,5.84e-4 0.243378,0.0017 z"
                 id="path71" />
            </g>
            <g
               id="Eyebrow/Natural/Default-Natural"
               fill-opacity="0.6">
              <path
                 d="M 26.039093,6.2101236 C 20.277555,6.9834622 11.292931,12.005248 12.04426,17.817811 c 0.02469,0.190243 0.31247,0.249536 0.436648,0.09068 2.486496,-3.188159 21.711889,-7.871946 28.713359,-6.893779 0.640785,0.08973 1.063799,-0.571681 0.626783,-0.984508 C 38.076566,6.4948543 31.200379,5.5122482 26.039093,6.2101236"
                 id="Eyebrow"
                 transform="rotate(5,27,12)" />
              <path
                 d="M 85.039093,6.2101236 C 79.277555,6.9834622 70.292931,12.005248 71.04426,17.817811 c 0.02469,0.190243 0.31247,0.249536 0.436648,0.09068 2.486496,-3.188159 21.711889,-7.871946 28.713362,-6.893779 0.64078,0.08973 1.0638,-0.571681 0.62678,-0.984508 C 97.076566,6.4948543 90.200379,5.5122482 85.039093,6.2101236"
                 id="path75"
                 transform="matrix(-0.9961947,0.08715574,0.08715574,0.9961947,170.62688,-7.4497303)" />
            </g>
          </g>
          <g
             id="Top"
             stroke-width="1"
             fill-rule="evenodd">
            <defs
               id="defs82">
              <rect
                 id="react-path-34"
                 x="0"
                 y="0"
                 width="264"
                 height="280" />
              <path
                 d="m 65.180219,77.737299 c 2.182966,-1.632766 15.226292,-2.258648 17.57761,-3.64785 0.733817,-0.434063 1.303243,-0.87373 1.741949,-1.309442 0.439036,0.435712 1.008792,0.875379 1.742609,1.309442 2.350988,1.389202 15.394313,2.015084 17.577283,3.64785 2.21036,1.653529 3.8239,5.447384 3.6473,8.413651 -0.21193,3.559191 -4.10548,12.051943 -13.794643,13.030152 -2.114634,-2.352909 -5.435462,-3.870649 -9.172549,-3.870649 -3.736426,0 -7.057584,1.51774 -9.172219,3.870649 C 65.638731,98.202893 61.745176,89.710141 61.53325,86.15095 c -0.176605,-2.966267 1.436935,-6.760122 3.646969,-8.413651 m 37.961421,17.169082 c 0.001,-6.59e-4 0.003,-0.0013 0.004,-0.0016 -0.002,3.3e-4 -0.003,9.89e-4 -0.004,0.0016 m -37.296265,-0.0049 c 0.004,0.0016 0.01122,0.0043 0.0165,0.0063 -0.0053,-0.002 -0.01089,-0.0043 -0.0165,-0.0063 M 144.86259,55.985334 c -0.3882,-5.954946 -1.58482,-11.833428 -2.6286,-17.699056 C 141.95274,36.707235 140.42371,26 139.73478,26 c -0.23239,9.109406 -1.03289,18.080386 -2.06512,27.139365 -0.30864,2.708202 -0.63181,5.417063 -0.8444,8.134822 -0.17165,2.195368 0.13435,4.847869 -0.39744,6.971387 -0.67869,2.706883 -4.07973,5.232824 -6.72484,6.165221 -6.60007,2.326542 -12.10518,-7.303026 -17.742,-10.119661 C 104.64327,60.634715 92.063739,59.763989 84.581643,64.529792 76.936147,59.763989 64.356614,60.634715 57.038909,64.291134 51.402415,67.107769 45.896971,76.737337 39.297238,74.410795 36.65213,73.478398 33.250427,70.952457 32.572397,68.245574 32.040272,66.122056 32.346277,63.469555 32.174954,61.274187 31.962368,58.556428 31.638868,55.847567 31.330223,53.139365 30.298323,44.080386 29.497495,35.109406 29.265433,26 28.57618,26 27.046817,36.707235 26.7659,38.286278 c -1.043783,5.865628 -2.240073,11.74411 -2.628274,17.699056 -0.399093,6.119408 0.07724,12.182128 1.331963,18.177942 0.599135,2.864426 1.298952,5.712371 2.049274,8.540872 0.833838,3.142595 -0.319869,9.262004 0.05348,12.487984 0.706419,6.103588 3.581939,18.007548 6.810999,23.258828 1.560722,2.53814 3.390149,4.12278 5.433151,6.16819 1.966089,1.96894 2.787383,5.0209 4.909609,7.11772 3.955945,3.90822 9.719529,6.23443 15.639581,6.80626 5.31167,4.50708 14.139922,7.45687 24.134095,7.45687 9.994833,0 18.822752,-2.94979 24.134762,-7.45687 5.91939,-0.57183 11.6833,-2.89804 15.63958,-6.80626 2.1219,-2.09682 2.94319,-5.14878 4.90961,-7.11772 2.04267,-2.04541 3.8721,-3.63005 5.43315,-6.16819 3.22873,-5.25128 6.10458,-17.15524 6.81067,-23.258828 0.37334,-3.22598 -0.78037,-9.345389 0.0538,-12.487984 0.75033,-2.828501 1.44981,-5.676446 2.04928,-8.540872 1.25406,-5.995814 1.73072,-12.058534 1.33196,-18.177942 z"
                 id="react-path-35" />
              <path
                 d="M 6,28 C 0.92368708,28.070955 0,26.993768 0,23 0,17.343984 4.0408529,6.7780854 8,2 c 1.1761209,-2.17069579 3.618986,-3.4318721 3,1 -2.6595078,8.47661 0.417343,24.914487 -5,25 z m 114,0 c -5.41734,-0.08551 -2.34049,-16.52339 -5,-25 -0.61899,-4.4318721 1.82388,-3.17069579 3,-1 3.95915,4.7780854 8,15.343984 8,21 0,3.993768 -0.92369,5.070955 -6,5 z"
                 id="react-path-36" />
            </defs>
            <mask
               id="react-mask-33"
               fill="#ffffff">
              <use
                 xlink:href="#react-path-34"
                 id="use84"
                 x="0"
                 y="0"
                 width="100%"
                 height="100%" />
            </mask>
            <g
               id="g87" />
            <g
               id="Top/Short-Hair/Sides"
               mask="url(#react-mask-33)">
              <g
                 transform="translate(-1)"
                 id="g113">
                <g
                   id="Facial-Hair/Beard-Light"
                   transform="translate(49,72)">
                  <defs
                     id="defs90">
                    <path
                       d="m 101.4284,98.168569 c -2.513563,2.294051 -5.19118,3.325741 -8.575456,2.604291 -0.582366,-0.12403 -2.956605,-4.538289 -8.85311,-4.538289 -5.896504,0 -8.270409,4.414259 -8.853109,4.538289 -3.384276,0.72145 -6.061893,-0.31024 -8.575459,-2.604291 -4.725089,-4.312965 -8.654644,-10.260383 -6.293436,-16.749388 1.230554,-3.382239 3.231918,-7.095447 6.872796,-8.17327 3.88779,-1.150369 9.346267,-0.002 13.264128,-0.78764 1.269312,-0.254746 2.6559,-0.707405 3.58508,-1.458271 0.929181,0.750866 2.316103,1.203525 3.584747,1.458271 3.918195,0.785634 9.376671,-0.362729 13.264459,0.78764 3.64088,1.077823 5.64224,4.791031 6.87313,8.17327 2.36121,6.489005 -1.56834,12.436423 -6.29377,16.749388 M 140.08103,26 c -3.41034,8.400253 -2.09326,18.858035 -2.72436,27.675872 -0.51263,7.167322 -2.01955,17.909881 -8.38381,22.538659 -3.2545,2.367083 -9.1785,6.345368 -13.43099,5.235663 -2.92733,-0.763809 -3.23969,-9.160098 -7.08659,-12.303214 -4.36356,-3.564665 -9.812295,-5.130937 -15.306132,-4.889108 -2.37061,0.104396 -7.165011,0.07962 -9.149215,1.902586 -1.984203,-1.822967 -6.778268,-1.79819 -9.148878,-1.902586 -5.494174,-0.241829 -10.942908,1.324443 -15.306473,4.889108 -3.846898,3.143116 -4.158918,11.539405 -7.086249,12.303214 -4.25249,1.109705 -10.176491,-2.86858 -13.431325,-5.235663 C 32.66241,71.585753 31.156165,60.843194 30.642864,53.675872 30.012093,44.858035 31.329173,34.400253 27.918834,26 c -1.659057,0 -0.5648,16.128869 -0.5648,16.128869 V 62.48512 c 0.03164,15.288085 9.581061,38.17033 30.753978,46.90788 5.178115,2.13682 16.907299,5.607 25.891921,5.607 8.984622,0 20.713807,-3.13981 25.891927,-5.27663 21.17291,-8.73756 30.72233,-31.950165 30.75431,-47.23825 V 42.128869 c 0,0 1.09392,-16.128869 -0.56514,-16.128869"
                       id="react-path-41" />
                  </defs>
                  <mask
                     id="react-mask-40"
                     fill="#ffffff">
                    <use
                       xlink:href="#react-path-41"
                       id="use92"
                       x="0"
                       y="0"
                       width="100%"
                       height="100%" />
                  </mask>
                  <use
                     id="Lite-Beard"
                     fill="#331b0c"
                     fill-rule="evenodd"
                     xlink:href="#react-path-41"
                     x="0"
                     y="0"
                     width="100%"
                     height="100%" />
                  <g
                     id="Color/Hair/Brown"
                     mask="url(#react-mask-40)"
                     fill="#b58143">
                    <g
                       transform="translate(-32)"
                       id="g98">
                      <rect
                         x="0"
                         y="0"
                         width="264"
                         height="244"
                         id="rect96" />
                    </g>
                  </g>
                </g>
                <g
                   id="Hair"
                   stroke-width="1"
                   fill-rule="evenodd"
                   transform="translate(70,74)">
                  <mask
                     id="react-mask-32"
                     fill="#ffffff">
                    <use
                       xlink:href="#react-path-36"
                       id="use102"
                       x="0"
                       y="0"
                       width="100%"
                       height="100%" />
                  </mask>
                  <use
                     id="Sides"
                     fill="#9e7a7a"
                     xlink:href="#react-path-36"
                     x="0"
                     y="0"
                     width="100%"
                     height="100%" />
                  <g
                     id="g110"
                     mask="url(#react-mask-32)"
                     fill="#b58143">
                    <g
                       id="g108">
                      <rect
                         x="0"
                         y="0"
                         width="264"
                         height="280"
                         id="rect106" />
                    </g>
                  </g>
                </g>
              </g>
            </g>
          </g>
        </g>
      </g>
    </g>
  </g>
</svg>
